<svg xmlns="http://www.w3.org/2000/svg" xml:space="preserve" width="2000" height="579" data-id="lg_oOwwRzTW1KjuvqjWTP" data-version="1" viewBox="0 0 2000 579"><g data-padding="20"><g transform="translate(10 13.986)scale(.9517)"><path fill="#0080ff" stroke="#010c80" stroke-width="3.45" d="M840.413 525.185h400.96"/><rect width="390.181" height="72.32" x="444.663" y="-137.625" fill="none" rx="0" ry="0" transform="translate(400.5 574.55)"/><path fill="#010c80" d="M863.013 448.845q-1.53.56-2.28 1.44-.82.94-.88 2.87v32.85q0 1.37.44 2.09.59.97 1.5 1.5 2.31 1.16 6.22 1.16h.22q3.62 0 7.25-3.32 3.25-3.5 4.87-7.68 1.56-4.03 1.56-9.38v-.81q0-5.94-1.22-9.72-2.03-5.5-5.4-8.34-3-2.53-7.22-3.03-.81-.1-1.72-.1-1.72.03-3.34.47m-15.28 39.72q.5-.03 3.62-.69 1.28-.28 1.91-.78.4-.31.4-1.09v-32.85q0-.72-.5-1.18-.65-.63-1.56-.79-3.25-.53-3.87-.59l10.75-4.09q3.78-1.32 8.68-1.32h.88q3.59 0 7.69 1.97 3.84 1.88 6.96 5.35 2.66 2.93 4.38 7.62t1.72 9.81q0 5.13-1.75 9.57-1.72 4.4-4.35 7.4-2.65 3.07-6.87 5.1-4.09 1.97-8.47 1.97-4.84 0-9.62-1.79-7.44-2.78-10-3.62m80.62 4.62h-33.62q3.87-.75 5.87-4.37l.06-.25v-37.97l-.06-.25q-2-3.62-5.87-4.37h29.56l5.81 10.06q-6.44-6.63-8.66-6.85l-.43-.03h-14.16v23.97h9.78l.44-.03q2.22-.22 8.66-6.84l-9.04 15.65q.29-1.03.29-1.9 0-2.32-1.88-3.6l-.22-.09h-8.03v13.69h18.22l.44-.03q2.22-.22 8.65-6.85Zm3.63-47.21h18.06q-5.97 2.65-5.97 4.09 0 .12.06.25l.1.28 12.06 31.03 11.62-31.03.1-.31q.06-.16.06-.35-.16-1.87-5.97-3.96h15.5q-3.84.75-5.84 4.37l-.1.25-16.72 43.84-17.03-43.84-.03-.09-.09-.28q-2-3.5-5.81-4.25m47.18 48.03v-24.13q1.32 10.81 4.53 15.5l.6.69q.5.72 2.5 2.12 3.56 2.5 8.44 2.5h.12q1.94 0 2.19-.06 4.62-.94 7.12-4.87 1.66-2.88 1.66-6.03v-.82q-.28-3.9-5.34-6.09l-10.63-4.88q-7.94-3.68-8-10.81v-.62q.13-4.85 3.5-8.07 3.41-3.25 8.56-3.25h.19q5.19 0 8.16 3.91l.25.03q2.34-.25 3.34-3.94v18.07q-1.87-7.72-3.87-10.38l-1.07-1.31q-.47-.44-1.62-1.38-2.41-1.96-4.94-2h-.09q-3.03 0-4.97 1.82-2 1.87-2 5.18v.19q0 4.35 5.81 6.94l11.38 5.06q7.03 3.13 7.5 11.35v1.21q-.94 6.13-5.19 9.94-4.16 4.1-11 4.1h-.25q-2.25 0-6.5-1.29l-5.85-2.5-.4-.15q-3.13.25-4.13 3.97m56.69-.82h-18.06q3.87-.75 5.87-4.37l.07-.25v-35.38q0-.75-.41-1.09-.56-.47-1.91-.78-2.75-.63-3.62-.69 2.15-.97 9.56-3.56 5.25-1.84 9.06-1.84h.25q4.66 0 7.82 1.28 3.18 1.25 5.31 3.18 2.9 2.66 4.12 5.63.82 1.69 1 5.62-.15 6.16-3.56 9.75-3.06 3.22-6.87 4.63-2.63.97-5.91.97-.63 0-1.28-.03-4.53-.22-7.38-2.63v14.94l.07.28q1.68 3.47 5.87 4.34m.78-44.75q-2.44 0-4.78 1.16-.94.56-1.5 1.5-.44.75-.44 2.09v15.57q1.57 2.9 5.07 4 1.5.43 2.9.43h.35q.12 0 1.25-.06 2.96-.31 5-1.94 3.68-2.96 3.68-10.25 0-3.75-1.5-6.75-1.31-2.62-4-4.31-2.31-1.44-6.03-1.44m42.28 44.75h-18.06q3.88-.75 5.88-4.37l.06-.25v-37.97l-.06-.25q-2-3.62-5.88-4.37h18.06q-4.18.87-5.87 4.34l-.06.28v22.53h20.34v-22.53l-.06-.25q-2-3.62-5.88-4.37h18.06q-4.18.87-5.87 4.34l-.06.28v37.97l.06.28q1.69 3.47 5.87 4.34h-18.06q3.88-.75 5.88-4.37l.06-.25v-12.25h-20.34v12.25l.06.28q1.69 3.47 5.87 4.34m63.91 0h-33.63q3.88-.75 5.88-4.37l.06-.25v-37.97l-.06-.25q-2-3.62-5.88-4.37h29.57l5.81 10.06q-6.44-6.63-8.66-6.85l-.43-.03h-14.16v23.97h9.78l.44-.03q2.22-.22 8.65-6.84l-9.03 15.65q.28-1.03.28-1.9 0-2.32-1.87-3.6l-.22-.09h-8.03v13.69h18.22l.44-.03q2.21-.22 8.65-6.85Zm26.53-44.75q-2.44 0-4.78 1.16-.94.56-1.5 1.5-.44.75-.44 2.09v15.57q1.56 2.9 5.06 4 1.5.43 2.91.43h.34q.13 0 1.25-.06 2.97-.31 5-1.94 3.69-2.96 3.69-10.25 0-3.75-1.5-6.75-1.31-2.62-4-4.31-2.31-1.44-6.03-1.44m-.78 44.75h-18.06q3.87-.75 5.87-4.37l.06-.25v-35.38q0-.75-.4-1.09-.56-.47-1.91-.78-2.75-.63-3.62-.69 2.15-.97 9.56-3.56 5.25-1.84 9.06-1.84h.25q4.66 0 7.81 1.28 3.19 1.25 5.32 3.18 2.9 2.66 4.12 5.63.81 1.69 1 5.62-.15 6.13-3.56 9.75-2.59 2.75-5.81 4.19 1.15.66 1.93 1.6 1.6 1.93 5.63 11l.66 1.37q1.34 2.59 3.25 2.59h.12q1.69 0 3.13-1.18 1.56-1.38 2.4-2-.4 3.93-2.62 6.25-2.44 2.53-5.03 2.53h-.13q-2.97 0-5.16-2.94-.46-.62-1.87-3.25l-4.47-9.47q-2.09-4.06-4.47-5.03l-.19-.06q-.68 0-1.43-.03-4.5-.19-7.38-2.63v14.94l.06.28q1.69 3.47 5.88 4.34m60.44 0h-33.63q3.88-.75 5.88-4.37l.06-.25v-37.97l-.06-.25q-2-3.62-5.88-4.37h29.56l5.82 10.06q-6.44-6.63-8.66-6.85l-.44-.03h-14.15v23.97h9.78l.44-.03q2.21-.22 8.65-6.84l-9.03 15.65q.28-1.03.28-1.9 0-2.32-1.87-3.6l-.22-.09h-8.03v13.69h18.22l.43-.03q2.22-.22 8.66-6.85Z"/><rect width="414.479" height="27.12" x="432.514" y="-115.025" fill="none" rx="0" ry="0" transform="translate(400.5 666.86)"/><path fill="#010c80" d="m848.263 573.405-3.86-9.29-4.01 9.29-4.98-11.36-.01-.03-.04-.11q-.75-1.31-2.18-1.59h6.77q-2.23.99-2.23 1.53 0 .05.02.1l.03.1 3.17 6.9 4.01-9.1 3.93 9.15 3-6.94.04-.11q.02-.06.02-.13 0-.68-2.24-1.49l5.65-.01q-1.44.28-2.19 1.64l-.03.09Z"/><path fill="#010c80" d="M862.123 572.935h-6.78q1.46-.28 2.21-1.64l.02-.1v-13.66q0-.29-.15-.41-.25-.19-.72-.29-1.03-.24-1.36-.26.4-.18 3.59-1.34.49-.17.96-.3v5.99l.03-.03q1.18-.87 2.62-.87 1.42 0 2.61.87 1.18.87 1.89 2.42.7 1.55.7 3.31v4q0 .29.15.41.24.19.72.29 1.06.24 1.36.26-.66.29-3.59 1.34-.49.17-.96.3v-6.6q0-2.67-1.02-3.96-.96-1.22-2.31-1.22h-.04q-1.49 0-2.16 1.08v8.67l.02.11q.64 1.3 2.21 1.63m9.15-6.32q0-1.75.7-3.3.69-1.53 1.89-2.42 1.18-.87 2.61-.87 1.36 0 2.57.79.87.48 1.57 1.63.49.82.55 1.78-.01 2.08-1.87 3.4-1.57 1.13-3.71 1.13-.02 0-1.68-.1.3 1.21.79 1.96.83 1.26 2.18 1.26h.02q1.44 0 2.45-1.24.41-.5.74-1.38l1.36.4q-.05.19-.08.26-.99 1.8-1.89 2.41-1.47.89-2.79.89h-.03q-1.61 0-2.79-.87-1.19-.86-1.89-2.41t-.7-3.32m7.68-2.4q0-1.32-.7-2.09-.61-.66-1.69-.76h-.02q-1.29 0-2.06 1.26-.59.96-.73 2.39-.08.83-.08 1.8 0 .33.05.76 1.06.03 2.13.03.55 0 .78-.06 1.19-.29 1.64-.99.68-1.13.68-2.34m11.01 8.73h-6.77q1.45-.28 2.2-1.64l.02-.1v-8.19q0-.28-.15-.41-.21-.18-.71-.29-1.06-.23-1.36-.26.8-.36 3.58-1.33 1.97-.69 3.4-.69h.09q1.9 0 3.31 1.31 1.17 1.36 1.17 2.73v.06q0 .64-.44 1.12-.44.47-1.08.47-.65 0-1.08-.44-.45-.46-.45-1.07v-.04q0-.66.45-1.1.43-.42 1.01-.44-.08-.48-1.15-1.1-.53-.31-1.37-.31-.14 0-.28.01-1.28.11-2.11.69-.06.04-.34.31-.17.15-.17.78v8.19l.03.11q.63 1.3 2.2 1.63m6.07-6.33q0-1.75.7-3.3.69-1.53 1.89-2.42 1.18-.87 2.61-.87 1.36 0 2.57.79.88.48 1.57 1.63.49.82.55 1.78-.01 2.08-1.86 3.4-1.57 1.13-3.72 1.13-.02 0-1.67-.1.29 1.21.78 1.96.83 1.26 2.18 1.26h.02q1.45 0 2.45-1.24.41-.5.74-1.38l1.36.4q-.05.19-.08.26-.98 1.8-1.89 2.41-1.46.89-2.79.89h-.03q-1.61 0-2.79-.87-1.18-.86-1.89-2.41-.7-1.55-.7-3.32m7.69-2.4q0-1.32-.71-2.09-.61-.66-1.68-.76h-.03q-1.29 0-2.06 1.26-.59.96-.73 2.39-.08.83-.08 1.8 0 .33.05.76 1.07.03 2.13.03.55 0 .79-.06 1.18-.29 1.64-.99.68-1.13.68-2.34m12.1 2.4q0-1.78.7-3.31.71-1.54 1.89-2.42 1.16-.85 2.61-.86h.04q1.37 0 2.58.86 1.22.88 1.76 2.11l.16.38.01.02q.21.57.21 1.08 0 .64-.44 1.12-.44.47-1.08.47-.63 0-1.08-.45-.44-.45-.44-1.09 0-.65.44-1.09.27-.27.6-.39-.2-.33-.55-.73-.72-.81-1.85-.91h-.03q-1.53 0-2.34 1.25-.82 1.28-.82 3.93v.04q0 2.71 1.05 3.99t2.18 1.28h.03q1.43 0 2.45-1.26.41-.5.73-1.37l1.36.39q-.03.15-.08.27-.62 1.46-1.89 2.41-1.18.89-2.78.89h-.04q-1.62 0-2.79-.87t-1.89-2.42q-.7-1.52-.7-3.32m15.31-.03q0 2.61.58 3.89.75 1.63 2.17 1.63 1.27 0 2-1.84.61-1.53.64-3.59v-.05q0-2.43-.94-3.93-.77-1.25-1.82-1.25h-.03q-1.12 0-1.85 1.27-.75 1.28-.75 3.87m-2.56.19q0-1.94.7-3.46.72-1.55 1.89-2.42 1.18-.87 2.61-.87 1.42 0 2.62.87 1.18.87 1.88 2.42.71 1.55.71 3.31 0 1.79-.71 3.31-.7 1.52-1.88 2.41-1.17.88-2.62.88-1.37 0-2.61-.88-1.19-.84-1.9-2.35-.69-1.49-.69-3.22m15.53-.2q0 2.63.59 3.89.76 1.63 2.26 1.63 1.13 0 2.05-.91l.12-.17q.16-.21.16-.79v-7.02q-.02-.37-.34-.84-.62-.93-1.85-.93h-.04q-1.44.01-2.2 1.27-.75 1.28-.75 3.87m-2.55.18q0-1.93.7-3.45.71-1.55 1.89-2.42 1.18-.88 2.61-.88 1.37 0 2.53.82v-3.29q0-.26-.15-.41-.14-.14-.78-.27-.64-.14-1.3-.28.74-.33 3.59-1.34.36-.12.96-.3v15.29q.01.28.15.41.19.17.72.3.96.23 1.36.25-.72.33-3.59 1.34-1.97.69-3.4.69h-.09q-1.37 0-2.61-.88-1.2-.84-1.9-2.35-.69-1.49-.69-3.23m14.03-.14q0-1.75.71-3.3.69-1.53 1.88-2.42 1.19-.87 2.62-.87 1.36 0 2.56.79.88.48 1.57 1.63.5.82.56 1.78-.02 2.08-1.87 3.4-1.57 1.13-3.71 1.13-.03 0-1.68-.1.29 1.21.79 1.96.83 1.26 2.18 1.26h.02q1.44 0 2.45-1.24.41-.5.74-1.38l1.36.4q-.05.19-.09.26-.98 1.8-1.88 2.41-1.47.89-2.79.89h-.04q-1.6 0-2.79-.87-1.18-.86-1.88-2.41-.71-1.55-.71-3.32m7.69-2.4q0-1.32-.7-2.09-.61-.66-1.69-.76h-.02q-1.29 0-2.06 1.26-.59.96-.73 2.39-.08.83-.08 1.8 0 .33.04.76 1.07.03 2.14.03.55 0 .78-.06 1.19-.29 1.64-.99.68-1.13.68-2.34m11.02 8.73h-6.78q1.46-.28 2.21-1.64l.02-.1v-8.19q0-.28-.15-.41-.21-.18-.72-.29-1.05-.23-1.36-.26.81-.36 3.59-1.33 1.97-.69 3.4-.69h.09q1.9 0 3.31 1.31 1.17 1.36 1.17 2.73v.06q0 .64-.45 1.12-.43.47-1.07.47-.65 0-1.08-.44-.45-.46-.45-1.07v-.04q0-.66.45-1.1.43-.42 1.01-.44-.09-.48-1.15-1.1-.53-.31-1.37-.31-.14 0-.29.01-1.27.11-2.1.69-.06.04-.34.31-.17.15-.17.78v8.19l.02.11q.64 1.3 2.21 1.63m5.83-3.08q0-.65.45-1.1.44-.45 1.08-.45.63 0 1.08.45.44.45.44 1.1 0 .6-.44 1.1-.1.11-.22.2l.14.12q1.06.79 2.45.79h.04q1.11 0 1.84-.58.63-.52.68-1.8v-.22q-.06-1.25-1.18-1.63l-3.19-.93q-1.8-.53-2.25-2.55-.05-.35-.05-.69 0-1.16.93-2.3 1.11-1.35 3.1-1.35 1.87 0 3.18 1.24.43.41.67.84.17.33.17.75 0 .63-.44 1.09-.45.46-1.08.46t-1.08-.46-.45-1.1q0-.65.45-1.09l.22-.15q-.71-.4-1.63-.4h-.03q-.79.06-1.42.58-.51.54-.51 1.54v.16q0 .99.99 1.41l2.78.73q1.22.44 1.81.96 1.13.97 1.15 2.92-.11 1.44-1.29 2.66-1.04 1.06-3.43 1.06-2.1 0-3.68-1.36-.82-.71-1.08-1.22-.07-.14-.1-.23-.1-.25-.1-.55m21.61-3.28q0 2.61.59 3.89.75 1.63 2.17 1.63 1.26 0 2-1.84.61-1.53.63-3.59v-.05q0-2.43-.93-3.93-.78-1.25-1.82-1.25h-.04q-1.11 0-1.85 1.27-.75 1.28-.75 3.87m-2.55.19q0-1.94.7-3.46.72-1.55 1.89-2.42 1.18-.87 2.61-.87 1.42 0 2.61.87t1.89 2.42.7 3.31q0 1.79-.7 3.31t-1.89 2.41q-1.17.88-2.61.88-1.37 0-2.61-.88-1.2-.84-1.9-2.35-.69-1.49-.69-3.22m18.94 6.17h-6.78q1.46-.28 2.21-1.64l.02-.1v-8.19q0-.28-.15-.41-.21-.18-.72-.29-1.05-.23-1.36-.26.81-.36 3.59-1.33 1.97-.69 3.4-.69h.09q1.9 0 3.31 1.31 1.17 1.36 1.17 2.73v.06q0 .64-.45 1.12-.43.47-1.08.47-.64 0-1.07-.44-.45-.46-.45-1.07v-.04q0-.66.45-1.1.43-.42 1-.44-.08-.48-1.15-1.1-.52-.31-1.37-.31-.14 0-.28.01-1.27.11-2.11.69-.06.04-.34.31-.16.15-.16.78v8.19l.02.11q.64 1.3 2.21 1.63m12.3-.85q1.32-.02 2.09-1.63.58-1.26.58-3.89 0-2.59-.75-3.87-.76-1.26-2.2-1.27h-.04q-1.23 0-1.85.93-.31.47-.34.84v7.02q0 .6.17.79l.11.17q.74.74 2.02.89.11.02.21.02m-7.05-.91q.27-.02 1.36-.25.46-.11.71-.3.15-.11.15-.41v-12.69q0-.29-.15-.41-.25-.2-.75-.29-1.21-.25-1.32-.26.1-.05 3.58-1.34.32-.11.96-.3v5.89q1.16-.82 2.53-.82 1.43 0 2.62.88 1.17.87 1.88 2.42.71 1.52.71 3.45 0 1.74-.69 3.23-.71 1.52-1.9 2.35-1.26.88-2.79.88-1.35 0-3.32-.69-2.92-1.02-3.58-1.34m14.03-9.52q.85-.38 3.59-1.34.43-.15.96-.3v11.17l.03.11q.63 1.3 2.2 1.63h-6.78q1.46-.28 2.21-1.64l.02-.1v-8.57q0-.3-.15-.41-.25-.2-.79-.31-1.14-.24-1.29-.24m2.31-4.09q-.44-.45-.44-1.09 0-.65.44-1.1.45-.45 1.08-.45t1.08.45.45 1.1q0 .64-.45 1.09t-1.08.45-1.08-.45m4.36 5.42 2.1-3.44q-.07.29-.07.59 0 .77.83.77h1.95v-3.38q0-.27-.16-.41-.17-.16-.76-.28-.65-.13-1.31-.27 1.07-.47 3.59-1.34.44-.15.96-.3v5.98h2.61q1.48-.09 2.21-.89l-2.09 3.44q.07-.29.07-.6 0-.76-.84-.76h-1.96v9.09l.02.11q.63 1.3 2.2 1.63h-6.77q1.45-.28 2.2-1.64l.03-.1v-9.09h-2.59q-1.48.08-2.22.89m22.22 3.59q0 2.63.59 3.89.76 1.63 2.08 1.63h.36q.97 0 1.87-.91l.12-.17q.17-.19.17-.79v-7.23q0-.59-.16-.78l-.12-.18q-.9-.9-1.87-.9h-.35q-1.33 0-2.09 1.63-.6 1.28-.6 3.81m-2.54-.11q0-1.73.69-3.22.69-1.5 1.9-2.36 1.24-.87 2.79-.87 1.35 0 3.31.69 2.83.99 3.59 1.33-.26.01-1.36.26-.47.11-.71.29-.16.12-.16.41v7.23q0 .31.14.41.25.19.72.3 1.1.24 1.36.25-.76.34-3.59 1.34-1.97.69-3.31.69-1.55 0-2.79-.88-1.21-.85-1.9-2.35-.68-1.47-.68-3.52m19.99 6.46h-6.77q1.45-.28 2.2-1.64l.02-.1v-8.57q0-.3-.15-.41-.23-.19-.71-.3-1.07-.23-1.36-.25.4-.18 3.58-1.34.5-.18.96-.3v.9l.04-.03q1.17-.87 2.61-.87 1.42 0 2.62.87 1.18.87 1.88 2.42.71 1.55.71 3.31v4q0 .29.15.41.23.19.71.29 1.07.24 1.36.26-.65.29-3.58 1.34-.5.17-.96.3v-6.6q0-2.67-1.02-3.96-.96-1.22-2.31-1.22h-.05q-1.49 0-2.16 1.08v8.67l.03.11q.63 1.3 2.2 1.63m11.7-6.36q0 2.63.58 3.89.76 1.63 2.26 1.63 1.14 0 2.05-.91l.12-.17q.17-.21.17-.79v-7.02q-.03-.37-.34-.84-.63-.93-1.86-.93h-.03q-1.44.01-2.2 1.27-.75 1.28-.75 3.87m-2.56.18q0-1.93.7-3.45.72-1.55 1.89-2.42 1.18-.88 2.61-.88 1.38 0 2.54.82v-3.29q0-.26-.16-.41-.14-.14-.77-.27-.64-.14-1.3-.28.74-.33 3.59-1.34.36-.12.96-.3v15.29q.01.28.15.41.19.17.71.3.96.23 1.36.25-.71.33-3.58 1.34-1.97.69-3.4.69h-.1q-1.37 0-2.61-.88-1.19-.84-1.9-2.35-.69-1.49-.69-3.23m20.26-5.09q.85-.38 3.59-1.34.43-.15.96-.3v11.17l.02.11q.63 1.3 2.2 1.63h-6.77q1.45-.28 2.2-1.64l.03-.1v-8.57q0-.3-.15-.41-.25-.2-.79-.31-1.15-.24-1.29-.24m2.31-4.09q-.45-.45-.45-1.09 0-.65.45-1.1t1.08-.45 1.08.45q.44.45.44 1.1 0 .64-.44 1.09-.45.45-1.08.45t-1.08-.45m8.77 9q0 2.63.58 3.89.77 1.63 2.27 1.63 1.13 0 2.05-.91l.11-.17q.17-.21.17-.79v-7.02q-.03-.37-.34-.84-.62-.93-1.85-.93h-.04q-1.44.01-2.2 1.27-.75 1.28-.75 3.87m-2.56.18q0-1.93.71-3.45.71-1.55 1.88-2.42 1.19-.88 2.62-.88 1.37 0 2.53.82v-3.29q0-.26-.16-.41-.14-.14-.77-.27-.64-.14-1.3-.28.74-.33 3.59-1.34.36-.12.96-.3v15.29q.01.28.15.41.19.17.71.3.97.23 1.36.25-.71.33-3.58 1.34-1.97.69-3.4.69h-.09q-1.38 0-2.62-.88-1.19-.84-1.9-2.35-.69-1.49-.69-3.23m14.05-.14q0-1.75.7-3.3.7-1.53 1.89-2.42 1.19-.87 2.61-.87 1.36 0 2.57.79.88.48 1.57 1.63.49.82.55 1.78-.01 2.08-1.86 3.4-1.57 1.13-3.72 1.13-.02 0-1.67-.1.29 1.21.78 1.96.84 1.26 2.18 1.26h.03q1.44 0 2.45-1.24.41-.5.73-1.38l1.36.4q-.04.19-.08.26-.98 1.8-1.89 2.41-1.46.89-2.78.89h-.04q-1.6 0-2.79-.87-1.18-.86-1.89-2.41-.7-1.55-.7-3.32m7.69-2.4q0-1.32-.7-2.09-.61-.66-1.69-.76h-.02q-1.29 0-2.07 1.26-.58.96-.72 2.39-.09.83-.09 1.8 0 .33.05.76 1.07.03 2.13.03.55 0 .79-.06 1.18-.29 1.64-.99.68-1.13.68-2.34m7.59 2.37q0 2.63.59 3.89.76 1.63 2.09 1.63h.35q.97 0 1.87-.91l.12-.17q.18-.19.18-.79v-7.23q0-.59-.17-.78l-.12-.18q-.9-.9-1.87-.9h-.35q-1.33 0-2.09 1.63-.6 1.28-.6 3.81m-2.54-.11q0-1.73.69-3.22.69-1.5 1.9-2.36 1.24-.87 2.79-.87 1.35 0 3.32.69 2.82.99 3.58 1.33-.25.01-1.36.26-.47.11-.71.29-.15.12-.15.41v7.23q0 .31.14.41.24.19.71.3 1.1.24 1.36.25-.76.34-3.58 1.34-1.97.69-3.32.69-1.55 0-2.79-.88-1.21-.85-1.9-2.35-.68-1.47-.68-3.52m13.81 3.39q0-.65.44-1.1.45-.45 1.08-.45t1.08.45q.44.45.44 1.1 0 .6-.44 1.1-.1.11-.21.2l.14.12q1.05.79 2.45.79h.03q1.12 0 1.84-.58.63-.52.68-1.8v-.22q-.06-1.25-1.18-1.63l-3.19-.93q-1.79-.53-2.25-2.55-.05-.35-.05-.69 0-1.16.93-2.3 1.11-1.35 3.1-1.35 1.87 0 3.18 1.24.43.41.67.84.17.33.17.75 0 .63-.44 1.09-.45.46-1.08.46t-1.08-.46q-.44-.46-.44-1.1 0-.65.44-1.09l.23-.15q-.72-.4-1.63-.4h-.04q-.78.06-1.42.58-.51.54-.51 1.54v.16q0 .99.99 1.41l2.78.73q1.22.44 1.82.96 1.12.97 1.15 2.92-.12 1.44-1.29 2.66-1.05 1.06-3.44 1.06-2.09 0-3.68-1.36-.82-.71-1.07-1.22-.07-.14-.11-.23-.09-.25-.09-.55m18.82 0q0-.65.44-1.1.45-.45 1.08-.45t1.08.45q.44.45.44 1.1 0 .6-.44 1.1-.1.11-.21.2l.14.12q1.05.79 2.45.79h.03q1.12 0 1.84-.58.64-.52.68-1.8v-.22q-.06-1.25-1.18-1.63l-3.19-.93q-1.79-.53-2.25-2.55-.05-.35-.05-.69 0-1.16.93-2.3 1.11-1.35 3.11-1.35 1.86 0 3.17 1.24.43.41.67.84.17.33.17.75 0 .63-.44 1.09-.45.46-1.08.46t-1.08-.46q-.44-.46-.44-1.1 0-.65.44-1.09l.23-.15q-.72-.4-1.63-.4h-.04q-.78.06-1.42.58-.51.54-.51 1.54v.16q0 .99.99 1.41l2.78.73q1.22.44 1.82.96 1.12.97 1.15 2.92-.12 1.44-1.29 2.66-1.05 1.06-3.44 1.06-2.09 0-3.68-1.36-.82-.71-1.07-1.22-.07-.14-.11-.23-.09-.25-.09-.55m20.93-3.2q0-2.64-.59-3.89-.76-1.63-2.26-1.63-1.14 0-2.05.9l-.12.18q-.16.19-.16.78v7.02q.02.38.34.85.62.92 1.85.92h.03q1.43 0 2.21-1.26.75-1.28.75-3.87m-2.96 11.34h-6.77q1.45-.28 2.2-1.64l.03-.09v-13.27q0-.28-.16-.41-.21-.18-.71-.29-1.06-.23-1.36-.26.76-.34 3.59-1.33 1.96-.69 3.39-.69h.1q1.37 0 2.61.87 1.2.85 1.9 2.36.69 1.49.69 3.22 0 1.94-.7 3.46-.72 1.55-1.89 2.41-1.18.88-2.61.88-1.37 0-2.53-.82v3.87l.02.1q.63 1.31 2.2 1.63m10.63-11.42q0 2.63.59 3.89.76 1.63 2.08 1.63h.36q.97 0 1.87-.91l.12-.17q.17-.19.17-.79v-7.23q0-.59-.16-.78l-.12-.18q-.9-.9-1.87-.9h-.35q-1.33 0-2.09 1.63-.6 1.28-.6 3.81m-2.54-.11q0-1.73.69-3.22.69-1.5 1.9-2.36 1.24-.87 2.79-.87 1.35 0 3.31.69 2.83.99 3.59 1.33-.26.01-1.36.26-.47.11-.71.29-.16.12-.16.41v7.23q0 .31.14.41.25.19.72.3 1.1.24 1.36.25-.76.34-3.59 1.34-1.97.69-3.31.69-1.55 0-2.79-.88-1.21-.85-1.9-2.35-.68-1.47-.68-3.52m20 6.47h-6.77q1.45-.28 2.2-1.64l.02-.1v-8.19q0-.28-.15-.41-.21-.18-.71-.29-1.06-.23-1.36-.26.81-.36 3.58-1.33 1.97-.69 3.4-.69h.1q1.89 0 3.3 1.31 1.17 1.36 1.17 2.73v.06q0 .64-.44 1.12-.44.47-1.08.47-.65 0-1.08-.44-.44-.46-.44-1.07v-.04q0-.66.44-1.1.43-.42 1.01-.44-.08-.48-1.15-1.1-.53-.31-1.37-.31-.14 0-.28.01-1.28.11-2.11.69-.06.04-.34.31-.17.15-.17.78v8.19l.03.11q.63 1.3 2.2 1.63m12.01-.01h-6.77q1.45-.28 2.2-1.64l.03-.1v-13.66q0-.29-.15-.41-.25-.2-.77-.29-1.21-.25-1.31-.26.11-.05 3.59-1.34.31-.11.96-.3v12.56l4.77-5.8.09-.13q.05-.08.05-.2 0-.45-2.03-1.05h5.52q-.83.24-2.14 1.63l-.09.1-4.09 4.91h1.79l4.04 4.43.03.05.05.05q1.36 1.13 2.38 1.45h-7.91q2.45-.6 2.45-1.28 0-.17-.17-.35l-.1-.11-3.22-3.44-1.42 1.7v1.74l.02.11q.63 1.3 2.2 1.63"/><path fill="#f9f1f1" d="M1036.398 405.695c-111.72 0-202.825-91.105-202.825-202.825S924.678.045 1036.398.045s202.825 91.105 202.825 202.825-91.105 202.825-202.825 202.825m0-392.35c-104.405 0-189.525 85.12-189.525 189.525s85.12 189.525 189.525 189.525 189.525-85.12 189.525-189.525-85.12-189.525-189.525-189.525"/><path fill="#f9f1f1" d="M1036.398 232.795c-52.535 0-102.41-2.66-139.65-7.98-55.86-7.315-63.175-16.625-63.175-25.27s7.315-17.955 63.175-25.27c37.24-5.32 87.115-7.98 139.65-7.98s102.41 2.66 139.65 7.98c55.86 7.315 63.175 17.29 63.175 25.27s-7.315 17.955-63.175 25.27c-37.24 5.32-87.115 7.98-139.65 7.98m-188.195-33.25c11.97 8.645 81.13 19.95 188.195 19.95s176.89-11.305 188.195-19.95c-11.97-8.645-81.13-19.95-188.195-19.95s-176.89 11.305-188.195 19.95"/><path fill="#f9f1f1" d="M1036.398 405.695c-63.84 0-116.375-91.105-116.375-202.825S972.558.045 1036.398.045s116.375 91.105 116.375 202.825-52.535 202.825-116.375 202.825m0-392.35c-56.525 0-103.075 85.12-103.075 189.525s46.55 189.525 103.075 189.525 103.075-85.12 103.075-189.525-46.55-189.525-103.075-189.525"/><path fill="#010c80" d="M1079.47 165.7q-.773.613-1.77.75l-1.137.113a9.08 9.08 0 0 0-7.604 6.129l-5.902 17.933a22.7 22.7 0 0 1-9.988 12.485l-13.62 8.172a24.97 24.97 0 0 1-12.803 3.54h-3.405a25 25 0 0 1-12.803-3.54l-13.62-8.172a22.7 22.7 0 0 1-9.988-12.485l-5.902-17.933a9.08 9.08 0 0 0-7.627-6.13l-1.135-.113a3.496 3.496 0 0 1-3.065-2.905l-2.383-14.347a5.9 5.9 0 0 1 1.816-5.289l3.768-3.405.227-.25a9 9 0 0 0 1.43-1.93q.16-.272.273-.567l.295-.794.16-.613.135-.817q0-.34.068-.659v-.158l.25-22.36a12.03 12.03 0 0 1 4.45-9.262 11.35 11.35 0 0 1 9.533-2.497c23.38 4.382 53.504 1.726 74.23-3.859V80.212c-17.185 5.448-47.308 9.261-71.325 4.767a27.47 27.47 0 0 0-27.467 11.1l-2.996-10.828a11.123 11.123 0 0 1 8.06-13.892l7.807-1.998a7.945 7.945 0 0 0 5.97-7.695v-.363c0-14.823 12.054-26.877 26.877-26.877 7.128 0 14.074 1.475 20.657 4.381 14.142 6.265 39.407 14.074 62.493 3.927q.068 2.61-.18 5.062h15.934q.636-9.193-1.68-19.635a7.945 7.945 0 0 0-12.53-4.631c-19.159 14.369-44.333 6.628-57.613.749a65.8 65.8 0 0 0-27.08-5.743c-21.566 0-39.476 16.049-42.359 36.842l-2.225.568c-7.127 1.816-13.075 6.333-16.752 12.689s-4.654 13.756-2.7 20.838L958 132.036l-.136.113a21.57 21.57 0 0 0-6.81 19.659l2.383 14.346a19.52 19.52 0 0 0 13.666 15.413l4.63 14.029a38.6 38.6 0 0 0 8.717 14.573c-22.18.034-40.873 16.56-43.629 38.568l-6.31 1.906a42.9 42.9 0 0 0-30.623 41.314v58.362a7.945 7.945 0 0 0 7.945 7.945h234.22a7.945 7.945 0 0 0 7.944-7.945v-58.362a42.9 42.9 0 0 0-30.645-41.314l-6.288-1.906c-2.747-22.02-21.443-38.554-43.63-38.59a38.6 38.6 0 0 0 8.717-14.528l4.631-14.074a19.52 19.52 0 0 0 13.393-14.301h-8.104q-4.54-.046-8.626-1.567m-78.814 74.365v-16.117l1.611.954a40.86 40.86 0 0 0 20.975 5.811h3.405a40.8 40.8 0 0 0 20.952-5.811l1.612-.954v16.117c0 1.476.454 2.838 1.135 4.018a26.559 26.559 0 0 1-50.825 0q1.09-1.793 1.135-4.018m-11.94 7.491a37.91 37.91 0 0 0 36.23 26.764c17.024 0 31.461-11.282 36.228-26.786l2.61.953c1.658.59 2.997 1.862 3.632 3.496a5.64 5.64 0 0 1-.09 4.767 46.08 46.08 0 0 1-41.86 26.332l-.52.045-.523-.045c-18.024 0-34.05-10.102-41.86-26.332a5.9 5.9 0 0 1-.113-4.767c.681-1.634 1.998-2.906 3.632-3.496Zm78.905 71.96a4.131 4.131 0 1 1-8.263 0 4.131 4.131 0 0 1 8.263 0m-77.112 0a4.131 4.131 0 1 1-8.263 0 4.131 4.131 0 0 1 8.263 0m107.008-65.378v.59a7.93 7.93 0 0 0 5.63 7.605l11.6 3.519a27.13 27.13 0 0 1 19.34 26.105v50.416H915.778v-50.415c0-12.1 7.786-22.587 19.363-26.105l11.577-3.519a7.945 7.945 0 0 0 5.675-7.604v-.59c0-15.482 12.576-28.08 28.08-28.08h4.313v10.827l-2.542.908a17.7 17.7 0 0 0-10.306 9.875 17.25 17.25 0 0 0 .386 13.983 59 59 0 0 0 8.4 12.803v30.69a15.481 15.481 0 1 0 11.35 0v-20.588a57.66 57.66 0 0 0 32.346 9.852l.522-.045.523.045c11.872 0 23.017-3.54 32.347-9.852v20.59a15.504 15.504 0 1 0 11.35 0v-30.691a59 59 0 0 0 8.4-12.803 17.25 17.25 0 0 0 .385-13.983 17.7 17.7 0 0 0-10.329-9.874l-2.497-.908v-10.828h4.313c15.482 0 28.08 12.598 28.08 28.08"/><path fill="#010c80" d="M1158.08 53.471h-70.008a19.07 19.07 0 0 0-19.068 19.068v69.984a19.07 19.07 0 0 0 19.068 19.068h14.982v24.993a5.675 5.675 0 0 0 9.761 3.95l27.876-28.965h17.388a19.07 19.07 0 0 0 19.068-19.068V72.515a19.07 19.07 0 0 0-19.068-19.068m7.718 89.053a7.72 7.72 0 0 1-7.718 7.718h-19.794a5.68 5.68 0 0 0-4.086 1.725l-19.795 20.566v-16.616a5.675 5.675 0 0 0-5.675-5.675h-20.656a7.72 7.72 0 0 1-7.718-7.718V72.515a7.72 7.72 0 0 1 7.718-7.718h70.007a7.72 7.72 0 0 1 7.718 7.718Z"/><path fill="#010c80" d="M1107.594 98.645a5.682 5.682 0 0 0-7.264-8.74l-14.687 12.212a5.675 5.675 0 0 0 0 8.717l14.687 12.213a5.675 5.675 0 0 0 7.99-.75 5.675 5.675 0 0 0-.726-7.99l-9.443-7.831Zm36.616-8.74a5.682 5.682 0 0 0-7.264 8.74l9.443 7.83-9.42 7.832a5.682 5.682 0 0 0 7.263 8.74l14.664-12.213a5.675 5.675 0 0 0 0-8.717Zm-14.824-4.768a5.675 5.675 0 0 0-7.173 3.564l-10.67 31.894a5.675 5.675 0 0 0 10.76 3.586l10.67-31.87a5.675 5.675 0 0 0-3.587-7.174"/></g><path fill="transparent" stroke="transparent" d="M793 0h414v579H793z"/></g></svg>