<svg version="1.2" xmlns="http://www.w3.org/2000/svg" viewBox="0 0 592 315" width="592" height="315">
	<title>icon-h-svg</title>
	<style>
		.s0 { fill: #000000 } 
		.s1 { fill: none } 
	</style>
	<g>
		<path class="s0" d="m152.4 5.5c-68.1 4.9-122.5 59.3-127.3 127.3-0.4 5.4 3.8 9.9 9.2 9.9h118.8c1.2 0 2.4-0.3 3.5-0.7 1.1-0.5 2.1-1.2 3-2 0.8-0.9 1.5-1.9 2-3 0.4-1.1 0.6-2.3 0.6-3.5v-118.8c0-5.3-4.5-9.5-9.8-9.2zm166.6 128.1c-4.8-68-59.2-122.4-127.3-127.3-5.3-0.3-9.8 3.9-9.8 9.2v118.8c0 1.2 0.2 2.4 0.7 3.5 0.4 1.1 1.1 2.1 2 3 0.8 0.9 1.8 1.5 2.9 2 1.1 0.4 2.3 0.7 3.5 0.7h118.9c5.3 0 9.5-4.5 9.1-9.9zm-12.1 26.9c-68 4.8-122.4 59.2-127.3 127.3-0.3 5.3 3.9 9.9 9.2 9.9h118.8c1.2 0 2.4-0.3 3.5-0.7 1.1-0.5 2.1-1.2 3-2 0.8-0.9 1.5-1.9 2-3 0.4-1.1 0.7-2.3 0.7-3.5v-118.8c0-5.3-4.5-9.5-9.9-9.2zm-281.8 11.3c4.8 68.1 59.2 122.5 127.3 127.3 5.3 0.4 9.8-3.8 9.8-9.2v-118.8c0-1.2-0.2-2.4-0.6-3.5-0.5-1.1-1.2-2.1-2-3-0.9-0.8-1.9-1.5-3-2-1.1-0.4-2.3-0.7-3.5-0.7h-118.8c-5.4 0-9.6 4.6-9.2 9.9z"/>
		<path class="s1" d="m341.9 152.5h222.4v157h-222.4z"/>
		<path fill-rule="evenodd" class="s0" d="m362.1 220.3h-14.1v-56.7h13.6q7.7 0 13 1.7 5.4 1.7 8.9 4.5 3.4 2.8 5.4 6.4 2 3.6 2.8 7.4 0.7 3.8 0.7 7.4 0 5.3-1.5 10.5-1.5 5.2-5 9.5-3.4 4.2-9.3 6.8-5.8 2.5-14.5 2.5zm-5.5-49.1v41.5h6.4q5.7 0 9.6-1.8 3.9-1.8 6.3-4.8 2.3-3.1 3.4-6.9 1-3.8 1-7.8 0-5.5-1.9-10.1-1.9-4.6-6.4-7.4-4.4-2.7-12-2.7zm71.8 49.1h-27.4v-56.7h24.9v7.6h-16.3v15.6h13.1v7.7h-13.1v18.2h18.8zm28.9 0h-1.2l-26.2-56.8h9.8l17 39 17-39h9.7zm-96.2 70.6q-3.3 0-6.4-0.8-3.2-0.8-5.7-2-2.4-1.2-3.7-2.4l4.1-7.4q0.9 0.7 2.7 1.8 1.8 1.2 4.2 2 2.4 0.9 4.8 0.9 3.9 0 6.6-1.9 2.6-1.9 2.6-5.4 0-2.9-1.5-4.9-1.5-1.9-4.1-3.4-2.5-1.4-5.4-2.8-2.8-1.3-5.5-3-3-2-5.2-5.4-2.3-3.3-2.3-8.5 0-5.2 2.4-8.5 2.3-3.3 6.2-5 3.9-1.7 8.6-1.7 3.7 0 6.3 0.8 2.6 0.8 4.4 1.9 1.8 1 2.8 1.9l-4.1 7q-1.3-1.4-3.9-2.6-2.7-1.2-5.9-1.2-3.8 0-6 1.8-2.3 1.7-2.3 5.1 0 3 2 5.1 2 2.2 5.2 3.9 3.1 1.7 6.4 3.5 3.3 1.8 5.9 4.2 2.1 1.8 3.5 4.6 1.5 2.8 1.5 6.3 0 5.2-2.4 8.8-2.5 3.7-6.6 5.5-4 1.8-9.2 1.8zm46.8-0.8h-8.5v-49.1h-14.5v-7.6h37.7v7.6h-14.7zm15.8 0l27.2-56.9h0.8l27.3 56.9h-9.9l-4.9-11.2h-26l-4.9 11.2zm27.7-40.4h-0.1l-3.4 7.7-6.2 13.7h19.2l-6.1-13.6zm58.2 40.9q-6.8 0-12.1-2.3-5.3-2.3-9-6.4-3.6-4-5.5-9.3-1.9-5.2-1.9-11 0-6.4 2.1-11.8 2.1-5.3 6-9.2 3.9-3.9 9.2-6 5.3-2.2 11.7-2.2 4.2 0 7.4 0.8 3.3 0.9 5.3 1.9 2.1 1.1 2.7 1.7l-3.8 7.7q-2.1-1.8-5.1-3-3.1-1.2-7.2-1.2-5.3 0-9.6 2.7-4.3 2.6-6.8 7.4-2.5 4.8-2.5 11.3 0 5.8 2.2 10.6 2.1 4.7 6.3 7.6 4.2 2.8 10.3 2.8 3.3 0 6.5-0.9 3.2-0.9 6.6-2.9l2.5 7.3q-1 0.9-3.4 2-2.4 1-5.5 1.7-3.1 0.7-6.4 0.7zm32.8-0.5h-8.5v-56.8h8.5v25.3l19.4-25.3h10.4l-19.6 25 22.4 31.8h-10.6l-17.4-25.4-4.6 5.7z"/>
	</g>
</svg>