<svg version="1.2" xmlns="http://www.w3.org/2000/svg" viewBox="0 0 2000 579" width="2000" height="579">
	<title>icon-svg</title>
	<style>
		.s0 { fill: #0080ff;stroke: #010c80;stroke-width: 3.3 } 
		.s1 { fill: none } 
		.s2 { fill: #010c80 } 
		.s3 { fill: #f9f1f1 } 
	</style>
	<g id="Folder 3">
		<g id="Folder 2">
			<path class="s0" d="m748.9 320.4h1217.3"/>
			<path class="s1" d="m1947.9 52.4v219.6h-1184.6v-219.6z"/>
			<path fill-rule="evenodd" class="s2" d="m771.1 209.2q1.5-0.1 11-2.1 3.9-0.8 5.8-2.3 1.2-1 1.2-3.3v-99.8q0-2.2-1.5-3.6-2-1.9-4.7-2.4-9.9-1.6-11.8-1.7l32.7-12.5q11.4-4 26.3-4h2.7q10.9 0 23.3 6 11.7 5.7 21.2 16.2 8 8.9 13.2 23.2 5.3 14.2 5.3 29.8 0 15.5-5.3 29-5.3 13.4-13.2 22.5-8.1 9.3-20.9 15.5-12.4 6-25.7 6-14.7 0-29.2-5.5-22.6-8.4-30.4-11zm46.4-120.6q-4.6 1.7-6.9 4.4-2.5 2.9-2.7 8.7v99.8q0 4.1 1.3 6.3 1.8 2.9 4.6 4.6 7 3.5 18.9 3.5h0.7q10.9 0 22-10.1 9.8-10.6 14.7-23.3 4.8-12.3 4.8-28.5v-2.5q0-18-3.7-29.5-6.2-16.7-16.4-25.3-9.1-7.7-21.9-9.2-2.5-0.3-5.3-0.3-5.2 0.1-10.1 1.4zm198.4 134.7h-102.1q11.8-2.3 17.8-13.3l0.2-0.8v-115.2l-0.2-0.8q-6-11-17.8-13.3h89.7l17.7 30.6q-19.6-20.2-26.3-20.8l-1.3-0.1h-43v72.8h29.7l1.3-0.1q6.8-0.7 26.3-20.8l-27.4 47.5q0.9-3.1 0.9-5.8 0-7-5.8-10.9l-0.6-0.3h-24.4v41.6h55.3l1.4-0.1q6.7-0.7 26.2-20.8zm11-143.3h54.9q-18.2 8-18.2 12.4 0 0.4 0.2 0.8l0.3 0.8 36.6 94.2 35.3-94.2 0.3-0.9q0.2-0.5 0.2-1.1-0.5-5.7-18.1-12h47q-11.6 2.3-17.7 13.2l-0.3 0.8-50.8 133.1-51.7-133.1-0.1-0.3-0.2-0.8q-6.1-10.6-17.7-12.9zm143.3 145.8v-73.3q4 32.9 13.7 47.1l1.8 2.1q1.6 2.2 7.6 6.4 10.8 7.6 25.7 7.6h0.3q5.9 0 6.7-0.2 14-2.8 21.6-14.7 5-8.8 5-18.4v-2.4q-0.8-11.9-16.2-18.5l-32.3-14.8q-24.1-11.2-24.2-32.9v-1.8q0.4-14.8 10.6-24.5 10.3-9.9 26-9.9h0.5q15.8 0 24.8 11.9h0.8q7.1-0.7 10.1-11.9v54.8q-5.7-23.4-11.7-31.5l-3.3-3.9q-1.4-1.4-4.9-4.2-7.3-6-15-6.1h-0.3q-9.2 0-15.1 5.5-6 5.7-6 15.7v0.6q0 13.2 17.6 21.1l34.6 15.4q21.3 9.5 22.7 34.4v3.7q-2.8 18.6-15.7 30.2-12.7 12.4-33.4 12.4h-0.8q-6.8 0-19.7-3.9l-17.8-7.6-1.2-0.5q-9.5 0.8-12.5 12.1zm172.1-2.5h-54.8q11.7-2.3 17.8-13.3l0.2-0.7v-107.4q0-2.3-1.3-3.3-1.7-1.5-5.8-2.4-8.3-1.9-10.9-2.1 6.5-2.9 29-10.8 15.9-5.6 27.5-5.6h0.7q14.2 0 23.8 3.9 9.6 3.8 16.1 9.6 8.8 8.1 12.5 17.1 2.5 5.2 3 17.1-0.4 18.7-10.8 29.6-9.3 9.8-20.8 14.1-8 2.9-18 2.9-1.9 0-3.8-0.1-13.8-0.7-22.5-8v45.4l0.3 0.8q5.1 10.6 17.8 13.2zm2.3-135.8q-7.4 0-14.5 3.5-2.8 1.7-4.5 4.5-1.4 2.3-1.4 6.4v47.2q4.8 8.8 15.4 12.2 4.6 1.3 8.8 1.3h1.1q0.4 0 3.8-0.2 9-0.9 15.2-5.9 11.2-9 11.2-31.1 0-11.4-4.6-20.5-4-7.9-12.1-13.1-7.1-4.3-18.4-4.3zm128.4 135.8h-54.8q11.8-2.3 17.8-13.3l0.2-0.7v-115.3l-0.2-0.8q-6-10.9-17.8-13.2h54.8q-12.7 2.6-17.8 13.2l-0.2 0.8v68.4h61.8v-68.4l-0.2-0.8q-6.1-10.9-17.9-13.2h54.9q-12.7 2.6-17.9 13.2l-0.1 0.8v115.3l0.1 0.8q5.2 10.6 17.9 13.2h-54.9q11.8-2.3 17.9-13.3l0.2-0.7v-37.2h-61.8v37.2l0.2 0.8q5.1 10.6 17.8 13.2zm194 0h-102.1q11.8-2.3 17.9-13.3l0.2-0.7v-115.3l-0.2-0.8q-6.1-10.9-17.9-13.2h89.8l17.7 30.5q-19.6-20.1-26.3-20.8l-1.3-0.1h-43v72.8h29.7l1.3-0.1q6.7-0.6 26.3-20.7l-27.5 47.5q0.9-3.2 0.9-5.8 0-7-5.7-10.9l-0.7-0.3h-24.3v41.6h55.3l1.3-0.1q6.7-0.7 26.3-20.8zm78.2 0h-54.9q11.8-2.3 17.8-13.3l0.2-0.8v-107.4q0-2.2-1.2-3.3-1.7-1.4-5.8-2.3-8.3-2-11-2.1 6.6-3 29-10.8 16-5.6 27.6-5.6h0.7q14.2 0 23.7 3.8 9.7 3.8 16.2 9.7 8.8 8.1 12.5 17.1 2.4 5.1 3 17.1-0.4 18.6-10.8 29.6-7.9 8.3-17.6 12.7 3.5 2 5.8 4.8 4.9 5.9 17.1 33.4l2 4.2q4.1 7.9 9.9 7.9h0.4q5.1 0 9.5-3.6 4.7-4.2 7.2-6.1-1.2 11.9-7.9 19-7.4 7.7-15.3 7.7h-0.4q-9 0-15.6-9-1.4-1.9-5.7-9.8l-13.6-28.8q-6.3-12.3-13.6-15.3l-0.5-0.1q-2.1 0-4.4-0.1-13.6-0.6-22.4-8v45.3l0.2 0.9q5.1 10.5 17.9 13.2zm2.3-135.9q-7.4 0-14.5 3.5-2.8 1.7-4.5 4.6-1.4 2.3-1.4 6.3v47.3q4.8 8.8 15.4 12.1 4.5 1.3 8.8 1.3h1q0.4 0 3.8-0.1 9.1-1 15.2-5.9 11.2-9 11.2-31.1 0-11.4-4.5-20.5-4-8-12.2-13.1-7-4.4-18.3-4.4zm181.1 135.9h-102.1q11.8-2.3 17.9-13.3l0.2-0.8v-115.2l-0.2-0.8q-6.1-11-17.9-13.3h89.8l17.7 30.6q-19.6-20.1-26.3-20.8l-1.4-0.1h-42.9v72.8h29.7l1.3-0.1q6.7-0.7 26.3-20.8l-27.5 47.5q0.9-3.1 0.9-5.7 0-7.1-5.7-11l-0.6-0.2h-24.4v41.5h55.3l1.3-0.1q6.7-0.6 26.3-20.8z"/>
			<path class="s1" d="m1984.8 401.3v82.3h-1258.4v-82.3z"/>
			<path class="s2" d="m772.7 466.8l-11.7-28.2-12.2 28.2-15.1-34.5v-0.1l-0.1-0.3q-2.3-4-6.7-4.8h20.6q-6.8 3-6.8 4.6 0 0.2 0.1 0.3l0.1 0.3 9.6 21 12.2-27.7 11.9 27.8 9.1-21.1 0.1-0.3q0.1-0.2 0.1-0.4 0-2.1-6.8-4.5h17.1q-4.3 0.8-6.6 4.9l-0.1 0.3z"/>
			<path fill-rule="evenodd" class="s2" d="m814.8 465.4h-20.6q4.5-0.9 6.7-5l0.1-0.3v-41.5q0-0.9-0.5-1.2-0.7-0.6-2.2-0.9-3.1-0.7-4.1-0.8 1.2-0.5 10.9-4.1 1.5-0.5 2.9-0.9v18.2l0.1-0.1q3.6-2.6 8-2.6 4.3 0 7.9 2.6 3.6 2.7 5.7 7.4 2.2 4.7 2.2 10v12.2q0 0.8 0.4 1.2 0.7 0.6 2.2 0.9 3.2 0.7 4.1 0.8-2 0.9-10.9 4-1.5 0.6-2.9 1v-20.1q0-8.1-3.1-12-2.9-3.7-7-3.7h-0.1q-4.5 0-6.6 3.3v26.3l0.1 0.3q1.9 4 6.7 5zm27.8-19.2q0-5.3 2.1-10 2.1-4.7 5.7-7.4 3.6-2.6 8-2.6 4.1 0 7.8 2.4 2.6 1.4 4.7 4.9 1.5 2.5 1.7 5.4 0 6.3-5.7 10.4-4.7 3.4-11.2 3.4-0.1 0-5.1-0.3 0.9 3.7 2.4 5.9 2.5 3.9 6.6 3.9 4.4 0 7.5-3.8 1.2-1.5 2.2-4.2l4.2 1.2q-0.2 0.6-0.3 0.8-3 5.5-5.7 7.3-4.5 2.7-8.5 2.7h-0.1q-4.9 0-8.5-2.6-3.6-2.6-5.7-7.3-2.1-4.7-2.1-10.1zm23.3-7.3q0-4-2.1-6.3-1.9-2.1-5.2-2.4-3.9 0-6.3 3.9-1.8 2.9-2.2 7.2-0.2 2.5-0.2 5.5 0 1 0.1 2.3 3.2 0.1 6.5 0.1 1.7 0 2.4-0.2 3.6-0.9 4.9-3 2.1-3.4 2.1-7.1zm33.4 26.5h-20.5q4.4-0.8 6.6-5l0.1-0.3v-24.8q0-0.9-0.4-1.3-0.7-0.5-2.2-0.9-3.2-0.7-4.1-0.8 2.4-1.1 10.8-4 6-2.1 10.4-2.1h0.2q5.8 0 10.1 4 3.5 4.1 3.5 8.3v0.2q0 1.9-1.3 3.4-1.3 1.4-3.3 1.4-2 0-3.3-1.4-1.3-1.4-1.3-3.2v-0.1q0-2 1.3-3.4 1.3-1.2 3.1-1.3-0.2-1.5-3.5-3.3-1.6-1-4.1-1-0.5 0-0.9 0.1-3.9 0.3-6.4 2-0.2 0.2-1 1-0.5 0.4-0.5 2.4v24.8 0.4q2 3.9 6.7 4.9zm18.5-19.2q0-5.3 2.1-10 2.1-4.7 5.7-7.4 3.6-2.6 7.9-2.6 4.2 0 7.8 2.4 2.7 1.4 4.8 4.9 1.5 2.5 1.7 5.4-0.1 6.3-5.7 10.4-4.7 3.4-11.3 3.4 0 0-5-0.3 0.8 3.7 2.3 5.9 2.6 3.9 6.7 3.9 4.4 0 7.5-3.8 1.2-1.5 2.2-4.2l4.1 1.2q-0.1 0.6-0.2 0.8-3 5.5-5.8 7.3-4.4 2.7-8.4 2.7h-0.1q-4.9 0-8.5-2.6-3.6-2.6-5.7-7.3-2.1-4.7-2.1-10.1zm23.3-7.3q0-4-2.2-6.3-1.8-2.1-5.1-2.4-4 0-6.3 3.9-1.8 2.9-2.2 7.2-0.3 2.5-0.3 5.5 0 1 0.2 2.3 3.2 0.1 6.5 0.1 1.6 0 2.4-0.2 3.5-0.9 4.9-3 2.1-3.4 2.1-7.1zm36.7 7.3q0-5.4 2.2-10.1 2.1-4.6 5.7-7.3 3.5-2.6 7.9-2.6h0.1q4.2 0 7.9 2.6 3.7 2.7 5.3 6.4l0.5 1.1v0.1q0.7 1.7 0.7 3.3 0 1.9-1.4 3.4-1.3 1.4-3.2 1.4-2 0-3.3-1.4-1.4-1.3-1.4-3.3 0-1.9 1.4-3.3 0.8-0.8 1.8-1.2-0.6-1-1.7-2.2-2.2-2.4-5.6-2.7h-0.1q-4.6 0-7.1 3.8-2.5 3.8-2.5 11.9v0.1q0 8.2 3.2 12.1 3.2 3.9 6.6 3.9h0.1q4.4 0 7.5-3.8 1.2-1.5 2.2-4.2l4.1 1.2q-0.1 0.5-0.2 0.8-1.9 4.5-5.8 7.3-3.6 2.8-8.4 2.8h-0.1q-5 0-8.5-2.7-3.6-2.6-5.7-7.3-2.2-4.7-2.2-10.1zm38.7 0.5q0-5.9 2.2-10.5 2.2-4.7 5.7-7.4 3.6-2.6 7.9-2.6 4.3 0 8 2.6 3.6 2.7 5.7 7.4 2.1 4.7 2.1 10 0 5.4-2.1 10.1-2.1 4.6-5.7 7.3-3.6 2.7-8 2.7-4.1 0-7.9-2.7-3.6-2.6-5.8-7.2-2.1-4.5-2.1-9.7zm7.8-0.6q0 7.9 1.8 11.8 2.3 5 6.6 5 3.8 0 6-5.6 1.9-4.7 2-10.9v-0.2q0-7.4-2.9-11.9-2.3-3.8-5.5-3.8h-0.1q-3.4 0-5.6 3.8-2.3 3.9-2.3 11.8zm31.6 0.5q0-5.9 2.2-10.5 2.1-4.7 5.7-7.3 3.6-2.7 7.9-2.7 4.2 0 7.7 2.5v-10q0-0.8-0.4-1.2-0.5-0.5-2.4-0.8-1.9-0.5-4-0.9 2.3-1 10.9-4.1 1.1-0.3 3-0.9v46.4q0 0.9 0.4 1.3 0.6 0.5 2.2 0.9 2.9 0.7 4.1 0.8-2.2 1-10.9 4-5.9 2.1-10.3 2.1h-0.3q-4.1 0-7.9-2.7-3.6-2.5-5.8-7.1-2.1-4.5-2.1-9.8zm7.8-0.5q0 7.9 1.8 11.8 2.3 4.9 6.8 4.9 3.5 0 6.3-2.7l0.3-0.6q0.5-0.6 0.5-2.4v-21.3q0-1.1-1-2.5-1.9-2.8-5.6-2.8h-0.2q-4.3 0-6.6 3.8-2.3 3.9-2.3 11.8zm34.8 0.1q0-5.3 2.2-10 2.1-4.7 5.7-7.4 3.6-2.6 8-2.6 4.1 0 7.7 2.4 2.7 1.4 4.8 4.9 1.5 2.5 1.7 5.4-0.1 6.3-5.7 10.4-4.7 3.4-11.2 3.4-0.1 0-5.1-0.3 0.8 3.7 2.4 5.9 2.5 3.9 6.6 3.9 4.4 0 7.5-3.8 1.2-1.5 2.2-4.2l4.1 1.2q-0.1 0.6-0.2 0.8-3 5.5-5.7 7.3-4.5 2.7-8.5 2.7h-0.1q-4.9 0-8.5-2.6-3.6-2.6-5.7-7.3-2.2-4.7-2.2-10.1zm23.4-7.3q0-4-2.1-6.3-1.9-2.1-5.2-2.4-3.9 0-6.3 3.9-1.8 2.9-2.2 7.2-0.2 2.5-0.2 5.5 0 1 0.1 2.3 3.2 0.1 6.5 0.1 1.6 0 2.3-0.2 3.7-0.9 5-3 2.1-3.4 2.1-7.1zm33.4 26.5h-20.5q4.4-0.8 6.7-5v-0.3-24.8q0-0.9-0.4-1.3-0.7-0.5-2.2-0.9-3.2-0.7-4.1-0.8 2.4-1.1 10.9-4 5.9-2.1 10.3-2.1h0.3q5.7 0 10 4 3.6 4.1 3.6 8.3v0.2q0 1.9-1.4 3.4-1.3 1.4-3.3 1.4-1.9 0-3.2-1.4-1.4-1.4-1.4-3.2v-0.1q0-2 1.4-3.4 1.3-1.2 3-1.3-0.2-1.5-3.5-3.3-1.6-1-4.1-1-0.4 0-0.9 0.1-3.9 0.3-6.4 2-0.2 0.2-1 1-0.5 0.4-0.5 2.4v24.8 0.4q2 3.9 6.7 4.9zm17.7-9.3q0-2 1.4-3.4 1.3-1.4 3.3-1.4 1.9 0 3.3 1.4 1.3 1.4 1.3 3.4 0 1.8-1.3 3.3-0.3 0.3-0.7 0.6l0.4 0.4q3.2 2.4 7.5 2.4h0.1q3.4 0 5.6-1.8 1.9-1.6 2-5.5v-0.6q-0.1-3.8-3.5-5l-9.7-2.8q-5.5-1.6-6.9-7.7-0.1-1.1-0.1-2.1 0-3.6 2.8-7 3.4-4.1 9.4-4.1 5.7 0 9.7 3.7 1.3 1.3 2 2.6 0.5 1 0.5 2.3 0 1.9-1.3 3.3-1.4 1.4-3.3 1.4-1.9 0-3.3-1.4-1.3-1.4-1.3-3.4 0-1.9 1.3-3.3l0.7-0.4q-2.2-1.2-4.9-1.2h-0.1q-2.4 0.1-4.3 1.7-1.6 1.7-1.6 4.7v0.5q0 3 3 4.3l8.4 2.2q3.8 1.3 5.5 2.9 3.5 2.9 3.5 8.9-0.3 4.3-3.9 8-3.1 3.3-10.4 3.3-6.4 0-11.2-4.2-2.5-2.1-3.2-3.7-0.3-0.4-0.3-0.7-0.4-0.7-0.4-1.6zm57.9-9.4q0-5.9 2.1-10.5 2.2-4.7 5.8-7.4 3.6-2.6 7.9-2.6 4.3 0 7.9 2.6 3.6 2.7 5.8 7.4 2.1 4.7 2.1 10 0 5.4-2.1 10.1-2.2 4.6-5.8 7.3-3.5 2.7-7.9 2.7-4.2 0-7.9-2.7-3.7-2.6-5.8-7.2-2.1-4.5-2.1-9.7zm7.8-0.6q0 7.9 1.7 11.8 2.3 5 6.6 5 3.9 0 6.1-5.6 1.9-4.7 1.9-10.9v-0.2q0-7.4-2.8-11.9-2.4-3.8-5.5-3.8h-0.2q-3.3 0-5.6 3.8-2.2 3.9-2.2 11.8zm49.7 19.3h-20.6q4.5-0.8 6.7-5l0.1-0.3v-24.8q0-0.9-0.5-1.3-0.6-0.5-2.1-0.9-3.2-0.7-4.2-0.8 2.5-1.1 10.9-4 6-2.1 10.4-2.1h0.2q5.8 0 10.1 4 3.5 4.1 3.5 8.3v0.2q0 1.9-1.3 3.4-1.3 1.4-3.3 1.4-2 0-3.3-1.4-1.3-1.4-1.3-3.2v-0.1q0-2 1.3-3.4 1.3-1.2 3.1-1.3-0.3-1.5-3.5-3.3-1.6-1-4.2-1-0.4 0-0.8 0.1-3.9 0.3-6.4 2-0.2 0.2-1.1 1-0.5 0.4-0.5 2.4v24.8l0.1 0.4q1.9 3.9 6.7 4.9zm16-5.3q0.8-0.1 4.1-0.8 1.4-0.3 2.1-0.9 0.5-0.3 0.5-1.3v-38.5q0-0.9-0.5-1.2-0.7-0.6-2.2-0.9-3.7-0.8-4-0.8 0.3-0.1 10.8-4.1 1-0.3 2.9-0.9v17.9q3.6-2.5 7.7-2.5 4.4 0 8 2.7 3.5 2.6 5.7 7.3 2.1 4.6 2.1 10.5 0 5.3-2.1 9.8-2.1 4.6-5.7 7.1-3.9 2.7-8.5 2.7-4.1 0-10.1-2.1-8.8-3.1-10.8-4zm21.4 2.7q4 0 6.3-4.9 1.8-3.9 1.8-11.8 0-7.9-2.3-11.8-2.3-3.8-6.7-3.8h-0.1q-3.7 0-5.6 2.8-1 1.4-1.1 2.5v21.3q0 1.9 0.6 2.4l0.3 0.6q2.2 2.2 6.1 2.7 0.4 0 0.7 0zm21.1-31.6q2.6-1.2 10.9-4.1 1.4-0.5 3-0.9v33.9l0.1 0.3q1.9 4 6.6 5h-20.6q4.5-0.9 6.8-5v-0.3-26q0-0.9-0.4-1.3-0.8-0.6-2.4-0.9-3.5-0.7-4-0.7zm7.1-12.5q-1.4-1.3-1.4-3.3 0-1.9 1.4-3.3 1.3-1.4 3.2-1.4 2 0 3.3 1.4 1.4 1.4 1.4 3.3 0 2-1.4 3.3-1.3 1.4-3.3 1.4-1.9 0-3.2-1.4zm13.2 16.5l6.4-10.4q-0.2 0.8-0.2 1.7 0 2.4 2.5 2.4h5.9v-10.3q0-0.8-0.5-1.2-0.5-0.5-2.3-0.9-2-0.4-4-0.8 3.3-1.4 10.9-4.1 1.4-0.4 2.9-0.9v18.2h8q4.5-0.3 6.7-2.7l-6.4 10.4q0.2-0.9 0.2-1.8 0-2.3-2.5-2.3h-6v27.6l0.1 0.3q1.9 4 6.7 5h-20.6q4.4-0.9 6.7-5l0.1-0.3v-27.6h-7.9q-4.5 0.2-6.7 2.7zm59.7 10.6q0-5.3 2.1-9.8 2.1-4.6 5.8-7.2 3.8-2.6 8.5-2.6 4.1 0 10 2.1 8.6 3 10.9 4-0.8 0-4.1 0.8-1.4 0.3-2.2 0.9-0.4 0.3-0.4 1.2v22q0 0.9 0.4 1.2 0.7 0.6 2.2 0.9 3.3 0.8 4.1 0.8-2.3 1-10.9 4.1-6 2.1-10.1 2.1-4.7 0-8.4-2.7-3.7-2.6-5.8-7.2-2.1-4.4-2.1-10.6zm7.8 0.3q0 8 1.7 11.8 2.4 5 6.4 5h1.1q2.9 0 5.6-2.8l0.4-0.5q0.5-0.6 0.5-2.4v-22q0-1.8-0.5-2.3l-0.3-0.6q-2.8-2.7-5.7-2.7h-1.1q-4 0-6.3 4.9-1.8 3.9-1.8 11.6zm52.9 19.3h-20.5q4.4-0.9 6.7-5v-0.3-26q0-0.9-0.4-1.3-0.7-0.6-2.2-0.9-3.2-0.7-4.1-0.7 1.2-0.6 10.8-4.1 1.6-0.6 3-0.9v2.7l0.1-0.1q3.5-2.6 7.9-2.6 4.3 0 8 2.6 3.5 2.7 5.7 7.4 2.1 4.7 2.1 10v12.2q0 0.8 0.5 1.2 0.7 0.6 2.1 0.9 3.3 0.7 4.2 0.8-2 0.9-10.9 4-1.5 0.6-2.9 1v-20.1q0-8.1-3.1-12-2.9-3.7-7-3.7h-0.2q-4.5 0-6.5 3.3v26.3l0.1 0.3q1.9 4 6.6 5zm27.8-18.8q0-5.9 2.1-10.5 2.2-4.7 5.7-7.3 3.6-2.7 8-2.7 4.2 0 7.7 2.5v-10q0-0.8-0.5-1.2-0.4-0.5-2.3-0.8-2-0.5-4-0.9 2.3-1 10.9-4.1 1.1-0.3 2.9-0.9v46.4q0.1 0.9 0.5 1.3 0.6 0.5 2.1 0.9 3 0.7 4.2 0.8-2.2 1-10.9 4-6 2.1-10.3 2.1h-0.3q-4.2 0-8-2.7-3.6-2.5-5.7-7.1-2.1-4.5-2.1-9.8zm7.8-0.5q0 7.9 1.7 11.8 2.3 4.9 6.9 4.9 3.4 0 6.2-2.7l0.4-0.6q0.5-0.6 0.5-2.4v-21.3q-0.1-1.1-1.1-2.5-1.9-2.8-5.6-2.8h-0.1q-4.4 0-6.7 3.8-2.2 3.9-2.2 11.8zm53.7-14.9q2.6-1.2 10.9-4.1 1.3-0.5 2.9-0.9v33.9l0.1 0.3q1.9 4 6.6 5h-20.5q4.4-0.9 6.7-5l0.1-0.3v-26q0-0.9-0.5-1.3-0.8-0.6-2.4-0.9-3.5-0.7-3.9-0.7zm7-12.5q-1.4-1.3-1.4-3.3 0-1.9 1.4-3.3 1.4-1.4 3.3-1.4 1.9 0 3.3 1.4 1.3 1.4 1.3 3.3 0 2-1.3 3.3-1.4 1.4-3.3 1.4-1.9 0-3.3-1.4zm18.9 27.9q0-5.9 2.1-10.5 2.2-4.7 5.7-7.3 3.6-2.7 8-2.7 4.1 0 7.7 2.5v-10q0-0.8-0.5-1.2-0.5-0.5-2.4-0.8-1.9-0.5-3.9-0.9 2.2-1 10.9-4.1 1.1-0.3 2.9-0.9v46.4q0 0.9 0.5 1.3 0.5 0.5 2.1 0.9 3 0.7 4.1 0.8-2.1 1-10.8 4-6 2.1-10.4 2.1h-0.2q-4.2 0-8-2.7-3.6-2.5-5.7-7.1-2.1-4.5-2.1-9.8zm7.7-0.5q0 7.9 1.8 11.8 2.3 4.9 6.9 4.9 3.4 0 6.2-2.7l0.3-0.6q0.6-0.6 0.6-2.4v-21.3q-0.1-1.1-1.1-2.5-1.9-2.8-5.6-2.8h-0.1q-4.4 0-6.7 3.8-2.3 3.9-2.3 11.8zm34.9 0.1q0-5.3 2.1-10 2.2-4.7 5.8-7.4 3.6-2.6 7.9-2.6 4.1 0 7.8 2.4 2.7 1.4 4.8 4.9 1.5 2.5 1.6 5.4 0 6.3-5.6 10.4-4.8 3.4-11.3 3.4-0.1 0-5.1-0.3 0.9 3.7 2.4 5.9 2.5 3.9 6.6 3.9h0.1q4.4 0 7.4-3.8 1.3-1.5 2.3-4.2l4.1 1.2q-0.1 0.6-0.3 0.8-2.9 5.5-5.7 7.3-4.4 2.7-8.4 2.7h-0.2q-4.8 0-8.4-2.6-3.6-2.6-5.8-7.3-2.1-4.7-2.1-10.1zm23.4-7.3q0-4-2.2-6.3-1.8-2.1-5.1-2.4h-0.1q-3.9 0-6.2 3.9-1.8 2.9-2.2 7.2-0.3 2.5-0.3 5.5 0 1 0.2 2.3 3.2 0.1 6.4 0.1 1.7 0 2.4-0.2 3.6-0.9 5-3 2.1-3.4 2.1-7.1zm15.3 6.9q0-5.3 2.1-9.8 2.1-4.6 5.8-7.2 3.7-2.6 8.4-2.6 4.1 0 10.1 2.1 8.6 3 10.9 4-0.8 0-4.2 0.8-1.4 0.3-2.1 0.9-0.5 0.3-0.5 1.2v22q0 0.9 0.5 1.2 0.7 0.6 2.1 0.9 3.4 0.8 4.1 0.8-2.3 1-10.8 4.1-6 2.1-10.1 2.1-4.7 0-8.5-2.7-3.6-2.6-5.7-7.2-2.1-4.4-2.1-10.6zm7.7 0.3q0 8 1.8 11.8 2.3 5 6.3 5h1.1q2.9 0 5.7-2.8l0.3-0.5q0.6-0.6 0.6-2.4v-22q0-1.8-0.5-2.3l-0.4-0.6q-2.7-2.7-5.7-2.7h-1q-4.1 0-6.4 4.9-1.8 3.9-1.8 11.6zm34.2 10q0-2 1.4-3.4 1.3-1.4 3.2-1.4 1.9 0 3.3 1.4 1.3 1.4 1.3 3.4 0 1.8-1.3 3.3-0.3 0.3-0.6 0.6l0.4 0.4q3.2 2.4 7.4 2.4h0.1q3.4 0 5.6-1.8 1.9-1.6 2.1-5.5v-0.6q-0.2-3.8-3.6-5l-9.7-2.8q-5.4-1.6-6.8-7.7-0.2-1.1-0.2-2.1 0-3.6 2.9-7 3.3-4.1 9.4-4.1 5.6 0 9.6 3.7 1.3 1.3 2.1 2.6 0.5 1 0.5 2.3 0 1.9-1.4 3.3-1.3 1.4-3.2 1.4-2 0-3.3-1.4-1.4-1.4-1.4-3.4 0-1.9 1.4-3.3l0.7-0.4q-2.2-1.2-5-1.2h-0.1q-2.4 0.1-4.3 1.7-1.6 1.7-1.6 4.7v0.5q0 3 3 4.3l8.5 2.2q3.7 1.3 5.5 2.9 3.4 2.9 3.5 8.9-0.4 4.3-3.9 8-3.2 3.3-10.5 3.3-6.3 0-11.1-4.2-2.5-2.1-3.3-3.7-0.2-0.4-0.3-0.7-0.3-0.7-0.3-1.6zm57.2 0q0-2 1.3-3.4 1.4-1.4 3.3-1.4 1.9 0 3.2 1.4 1.4 1.4 1.4 3.4 0 1.8-1.4 3.3-0.3 0.3-0.6 0.6l0.4 0.4q3.2 2.4 7.5 2.4h0.1q3.4 0 5.6-1.8 1.9-1.6 2-5.5v-0.6q-0.2-3.8-3.6-5l-9.7-2.8q-5.4-1.6-6.8-7.7-0.1-1.1-0.1-2.1 0-3.6 2.8-7 3.4-4.1 9.4-4.1 5.7 0 9.7 3.7 1.3 1.3 2 2.6 0.5 1 0.5 2.3 0 1.9-1.3 3.3-1.4 1.4-3.3 1.4-1.9 0-3.3-1.4-1.3-1.4-1.3-3.4 0-1.9 1.3-3.3l0.7-0.4q-2.2-1.2-4.9-1.2h-0.2q-2.3 0.1-4.3 1.7-1.5 1.7-1.5 4.7v0.5q0 3 3 4.3l8.4 2.2q3.7 1.3 5.6 2.9 3.4 2.9 3.4 8.9-0.3 4.3-3.9 8-3.2 3.3-10.4 3.3-6.4 0-11.2-4.2-2.5-2.1-3.2-3.7-0.2-0.4-0.4-0.7-0.2-0.7-0.2-1.6zm54.5 24.7h-20.5q4.4-0.9 6.6-5l0.1-0.3v-40.3q0-0.8-0.5-1.2-0.6-0.6-2.1-0.9-3.2-0.7-4.1-0.8 2.3-1 10.9-4 5.9-2.1 10.2-2.1h0.4q4.1 0 7.9 2.6 3.6 2.6 5.7 7.2 2.1 4.5 2.1 9.8 0 5.8-2.1 10.5-2.2 4.7-5.7 7.3-3.6 2.7-7.9 2.7-4.2 0-7.7-2.5v11.7 0.3q1.9 4 6.7 5zm9-34.5q0-8-1.8-11.8-2.3-4.9-6.9-4.9-3.4 0-6.2 2.7l-0.3 0.6q-0.5 0.5-0.5 2.3v21.3q0 1.2 1 2.6 1.9 2.8 5.6 2.8h0.1q4.4 0 6.7-3.8 2.3-3.9 2.3-11.8zm15.6-0.5q0-5.3 2.1-9.8 2.1-4.6 5.7-7.2 3.8-2.6 8.5-2.6 4.1 0 10.1 2.1 8.5 3 10.9 4-0.8 0-4.2 0.8-1.4 0.3-2.1 0.9-0.5 0.3-0.5 1.2v22q0 0.9 0.4 1.2 0.8 0.6 2.2 0.9 3.3 0.8 4.1 0.8-2.3 1-10.9 4.1-6 2.1-10 2.1-4.7 0-8.5-2.7-3.7-2.6-5.8-7.2-2-4.4-2-10.6zm7.7 0.3q0 8 1.8 11.8 2.3 5 6.3 5h1.1q2.9 0 5.7-2.8l0.3-0.5q0.5-0.6 0.5-2.4v-22q0-1.8-0.4-2.3l-0.4-0.6q-2.7-2.7-5.7-2.7h-1q-4.1 0-6.4 4.9-1.8 3.9-1.8 11.6zm53 19.3h-20.6q4.4-0.8 6.7-5l0.1-0.3v-24.8q0-0.9-0.5-1.3-0.6-0.5-2.1-0.9-3.3-0.7-4.2-0.8 2.5-1.1 10.9-4 6-2.1 10.3-2.1h0.3q5.8 0 10.1 4 3.5 4.1 3.5 8.3v0.2q0 1.9-1.3 3.4-1.4 1.4-3.3 1.4-2 0-3.3-1.4-1.3-1.4-1.3-3.2v-0.1q0-2 1.3-3.4 1.3-1.2 3.1-1.3-0.3-1.5-3.5-3.3-1.6-1-4.2-1-0.4 0-0.8 0.1-3.9 0.3-6.4 2-0.2 0.2-1.1 1-0.5 0.4-0.5 2.4v24.8l0.1 0.4q1.9 3.9 6.7 4.9zm36.5 0h-20.6q4.4-0.9 6.7-5l0.1-0.3v-41.5q0-0.9-0.5-1.2-0.7-0.6-2.3-0.9-3.7-0.8-4-0.8 0.3-0.1 10.9-4.1 0.9-0.3 2.9-0.9v38.2l14.5-17.7 0.3-0.3q0.1-0.3 0.1-0.7 0-1.3-6.1-3.1h16.7q-2.5 0.7-6.5 4.9l-0.3 0.3-12.4 14.9h5.5l12.2 13.5 0.1 0.1 0.2 0.2q4.1 3.4 7.2 4.4h-24q7.4-1.9 7.4-3.9 0-0.5-0.5-1.1l-0.3-0.3-9.8-10.5-4.3 5.2v5.3l0.1 0.3q1.9 4 6.7 5z"/>
		</g>
		<g id="Folder 1">
			<path fill-rule="evenodd" class="s3" d="m305.5 579c-160.1 0-289.5-129.4-289.5-289.5 0-160.1 129.4-289.5 289.5-289.5 160.1 0 289.5 129.4 289.5 289.5 0 160.1-129.4 289.5-289.5 289.5zm270.5-289.5c0-149.6-120.9-270.5-270.5-270.5-149.6 0-270.5 120.9-270.5 270.5 0 149.6 120.9 270.5 270.5 270.5 149.6 0 270.5-120.9 270.5-270.5z"/>
			<path fill-rule="evenodd" class="s3" d="m305.5 332.2c-75 0-146.2-3.8-199.3-11.4-79.8-10.4-90.2-23.7-90.2-36 0-12.4 10.4-25.7 90.2-36.1 53.1-7.6 124.3-11.4 199.3-11.4 75 0 146.2 3.8 199.3 11.4 79.8 10.4 90.2 24.7 90.2 36.1 0 11.3-10.4 25.6-90.2 36-53.1 7.6-124.3 11.4-199.3 11.4zm-268.6-47.4c17.1 12.3 115.8 28.4 268.6 28.4 152.8 0 252.5-16.1 268.6-28.4-17.1-12.4-115.8-28.5-268.6-28.5-152.8 0-252.5 16.1-268.6 28.5z"/>
			<path fill-rule="evenodd" class="s3" d="m305.5 579c-91.9 0-166.1-129.4-166.1-289.5 0-160.1 74.2-289.5 166.1-289.5 91.9 0 166.1 129.4 166.1 289.5 0 160.1-74.2 289.5-166.1 289.5zm147.1-289.5c0-149.6-65.7-270.5-147.1-270.5-81.4 0-147.1 120.9-147.1 270.5 0 149.6 65.7 270.5 147.1 270.5 81.4 0 147.1-120.9 147.1-270.5z"/>
			<path fill-rule="evenodd" class="s2" d="m366.9 236.4q5.9 2.2 12.4 2.2h11.5c-0.5 2.4-1.4 4.7-2.5 6.9-1.2 2.1-2.6 4.1-4.3 5.9-1.7 1.8-3.6 3.4-5.6 4.7-2.1 1.2-4.4 2.3-6.7 3l-6.6 20.1q-1 2.8-2.2 5.6-1.3 2.8-2.9 5.4-1.5 2.6-3.4 5.1-1.8 2.4-3.9 4.6c31.6 0 58.3 23.6 62.2 55.1l9 2.7c6.3 1.9 12.3 4.7 17.6 8.5 5.4 3.8 10.2 8.4 14.1 13.7 3.9 5.3 7 11.1 9 17.4 2 6.2 3.1 12.8 3 19.4v83.3c0 1.4-0.2 2.9-0.8 4.3-0.6 1.4-1.4 2.6-2.5 3.7-1 1-2.3 1.9-3.7 2.4-1.3 0.6-2.8 0.9-4.3 0.9h-334.3c-1.5 0-3-0.3-4.3-0.9-1.4-0.5-2.7-1.4-3.7-2.4-1.1-1.1-1.9-2.3-2.5-3.7-0.6-1.4-0.8-2.9-0.8-4.3v-83.3c-0.1-6.6 0.9-13.2 3-19.4 2-6.2 5.1-12.1 9-17.4 3.9-5.3 8.6-9.9 14-13.7 5.4-3.7 11.4-6.6 17.7-8.5l9-2.7c3.9-31.4 30.6-55 62.2-55.1q-2.1-2.2-3.9-4.6-1.9-2.5-3.4-5.1-1.6-2.6-2.9-5.4-1.2-2.8-2.2-5.7l-6.6-20c-2.5-0.7-4.8-1.8-7-3.2-2.2-1.4-4.2-3.1-5.9-5-1.7-2-3.2-4.1-4.3-6.5-1.1-2.3-1.9-4.8-2.3-7.3l-3.4-20.5q-0.7-3.8-0.4-7.7 0.4-3.9 1.6-7.6 1.3-3.6 3.5-6.9 2.1-3.2 5-5.8l0.2-0.2-16.8-60.8c-2.8-10.1-1.4-20.6 3.9-29.7 5.2-9.1 13.7-15.5 23.9-18.1l3.2-0.8c4.1-29.7 29.6-52.6 60.4-52.6q5 0 10 0.5 4.9 0.5 9.8 1.5 4.9 1.1 9.6 2.6 4.7 1.6 9.3 3.6c18.9 8.4 54.9 19.4 82.2-1.1 1.5-1.1 3.3-1.9 5.2-2.1 1.9-0.3 3.8-0.1 5.6 0.5 1.7 0.7 3.3 1.8 4.6 3.2 1.2 1.5 2.1 3.2 2.5 5q3.3 14.9 2.4 28.1h-22.8q0.4-3.5 0.3-7.3c-32.9 14.5-69 3.4-89.2-5.6-9.4-4.1-19.3-6.2-29.5-6.2-21.1 0-38.3 17.2-38.3 38.3v0.6q0 1.8-0.7 3.6-0.6 1.8-1.7 3.3-1.2 1.5-2.8 2.5-1.5 1.1-3.4 1.5l-11.1 2.9c-2.1 0.5-4 1.4-5.8 2.7-1.7 1.3-3.1 2.9-4.2 4.7-1.1 1.9-1.8 4-2 6.1-0.3 2.1-0.1 4.3 0.5 6.3l4.3 15.5c2.1-3.1 4.7-5.8 7.6-8.1 3-2.3 6.2-4.2 9.6-5.6 3.5-1.4 7.1-2.3 10.9-2.6 3.7-0.4 7.4-0.3 11.1 0.4 34.2 6.4 77.2 1 101.8-6.8v23.6c-29.6 8-72.6 11.8-106 5.5q-1.8-0.3-3.6-0.3-1.8 0.1-3.6 0.5-1.8 0.5-3.4 1.4-1.6 0.8-3 2-1.5 1.2-2.6 2.7-1.2 1.5-2 3.2-0.9 1.7-1.3 3.5-0.4 1.9-0.4 3.8l-0.4 31.9v0.2q-0.1 0.5-0.1 1l-0.2 1.2-0.2 0.8-0.4 1.2q-0.2 0.4-0.4 0.8-0.2 0.3-0.5 0.7-0.2 0.4-0.4 0.7-0.3 0.4-0.6 0.7-0.3 0.3-0.6 0.6l-0.3 0.4-5.4 4.8q-0.7 0.8-1.3 1.6-0.6 0.9-0.9 1.9-0.4 1-0.4 2-0.1 1.1 0 2.1l3.4 20.5q0.2 0.8 0.6 1.5 0.3 0.7 0.9 1.3 0.6 0.5 1.4 0.9 0.7 0.3 1.5 0.4l1.6 0.2q1.9 0.2 3.6 0.9 1.7 0.7 3.2 1.9 1.4 1.1 2.5 2.6 1 1.6 1.6 3.3l8.4 25.6q1 2.8 2.3 5.4 1.4 2.5 3.3 4.8 1.8 2.3 4 4.2 2.2 1.9 4.7 3.4l19.4 11.7q2.1 1.2 4.3 2.2 2.2 0.9 4.5 1.6 2.4 0.6 4.7 0.9 2.4 0.4 4.8 0.4h4.9q2.4 0 4.8-0.4 2.3-0.3 4.7-0.9 2.3-0.7 4.5-1.6 2.2-1 4.3-2.2l19.4-11.7q2.5-1.5 4.7-3.4 2.2-1.9 4-4.2 1.9-2.3 3.3-4.8 1.3-2.6 2.3-5.4l8.4-25.6q0.6-1.7 1.6-3.2 1.1-1.6 2.5-2.7 1.5-1.2 3.2-1.9 1.7-0.7 3.5-0.9l1.7-0.2q1.4-0.2 2.5-1.1m-114.2 111.9c2.4 7.8 7.2 14.6 13.7 19.4 6.6 4.9 14.5 7.5 22.6 7.5 8.1 0 16-2.6 22.6-7.5 6.5-4.8 11.3-11.6 13.7-19.4-1-1.7-1.6-3.6-1.6-5.7v-23l-2.3 1.3q-3.4 2-7 3.6-3.6 1.5-7.4 2.6-3.8 1-7.7 1.6-3.9 0.5-7.9 0.5h-4.8q-4 0-7.9-0.5-3.9-0.6-7.6-1.6-3.8-1.1-7.5-2.6-3.6-1.6-7-3.6l-2.3-1.3v23q0 3.1-1.6 5.7zm139.9 14.3c0-22-17.9-40-40-40h-6.2v15.4l3.6 1.3q2.4 0.9 4.7 2.3 2.2 1.4 4.1 3.2 1.9 1.8 3.4 4 1.5 2.2 2.5 4.6 1 2.4 1.4 4.9 0.5 2.6 0.4 5.2 0 2.5-0.6 5-0.6 2.5-1.7 4.9-1.2 2.4-2.6 4.8-1.3 2.4-2.8 4.7-1.5 2.3-3.2 4.5-1.6 2.2-3.4 4.2v43.9c9.9 3.8 15.6 14.2 13.6 24.7-2 10.4-11.1 18-21.7 18-10.7 0-19.8-7.6-21.8-18-2-10.5 3.8-20.9 13.7-24.7v-29.4c-13.4 9-29.3 14-46.2 14h-0.8-0.7q-6.1 0-12.2-0.9-6.1-0.9-11.9-2.6-5.9-1.8-11.4-4.5-5.6-2.6-10.7-6v29.3c9.9 3.9 15.6 14.3 13.6 24.7-1.9 10.5-11.1 18-21.7 18-10.6 0-19.7-7.5-21.7-18-2-10.4 3.8-20.8 13.6-24.7v-43.8q-1.8-2-3.4-4.2-1.7-2.2-3.2-4.5-1.5-2.3-2.8-4.7-1.4-2.4-2.6-4.8-1.1-2.4-1.7-4.9-0.6-2.5-0.6-5.1-0.1-2.5 0.3-5.1 0.5-2.5 1.5-4.9 1-2.4 2.5-4.6 1.5-2.2 3.4-4 1.9-1.8 4.1-3.2 2.2-1.4 4.7-2.3l3.6-1.3v-15.4h-6.1c-22.2 0-40.1 17.9-40.1 40v0.9q0 1.8-0.6 3.6-0.6 1.7-1.7 3.2-1.1 1.4-2.6 2.5-1.5 1-3.2 1.5l-16.5 5.1c-16.6 5-27.7 20-27.7 37.2v72h311.6v-72c0-4.1-0.6-8.3-1.9-12.2-1.3-3.9-3.2-7.7-5.7-11-2.5-3.3-5.5-6.2-8.9-8.6-3.4-2.4-7.1-4.2-11.1-5.4l-16.6-5.1q-1.7-0.5-3.2-1.5-1.5-1.1-2.6-2.6-1.1-1.4-1.6-3.2-0.6-1.7-0.6-3.5v-0.9zm-44.4 89.2c-1.1-1.1-2.6-1.7-4.2-1.7-1.6 0-3.1 0.6-4.2 1.7-1.1 1.1-1.7 2.6-1.7 4.2 0 1.5 0.6 3 1.7 4.1 1.1 1.1 2.6 1.8 4.2 1.8 1.6 0 3.1-0.7 4.2-1.8 1.1-1.1 1.7-2.6 1.7-4.1 0-1.6-0.6-3.1-1.7-4.2zm-110.1 0c-1.1-1.1-2.6-1.7-4.2-1.7-1.5 0-3 0.6-4.1 1.7-1.1 1.1-1.8 2.6-1.8 4.2 0 1.5 0.7 3 1.8 4.1 1.1 1.1 2.6 1.8 4.1 1.8 1.6 0 3.1-0.7 4.2-1.8 1.1-1.1 1.7-2.6 1.7-4.1 0-1.6-0.6-3.1-1.7-4.2zm-4.6-97.2c-2.3 0.8-4.2 2.6-5.2 5q-0.3 0.8-0.5 1.6-0.1 0.9-0.1 1.8 0 0.9 0.2 1.7 0.2 0.9 0.6 1.7c11.1 23.1 34 37.6 59.7 37.6h0.8 0.7c6.2 0 12.4-0.9 18.4-2.6 6-1.7 11.7-4.2 17-7.5 5.2-3.4 10-7.4 14.1-12 4.2-4.7 7.6-9.9 10.3-15.5q0.4-0.8 0.6-1.7 0.2-0.8 0.2-1.7 0-0.9-0.2-1.8-0.1-0.8-0.5-1.6c-0.9-2.4-2.8-4.2-5.2-5l-3.7-1.4c-6.8 22.1-27.4 38.2-51.7 38.2-5.8 0-11.5-0.9-16.9-2.7-5.5-1.8-10.6-4.4-15.3-7.8-4.6-3.5-8.6-7.6-12-12.3-3.3-4.7-5.8-9.9-7.5-15.4z"/>
			<path fill-rule="evenodd" class="s2" d="m479.2 76.2c3.6 0 7.1 0.7 10.4 2.1 3.3 1.4 6.3 3.4 8.8 5.9 2.6 2.5 4.6 5.5 5.9 8.8 1.4 3.3 2.1 6.9 2.1 10.4v99.9c0 3.6-0.7 7.1-2.1 10.4-1.3 3.3-3.3 6.3-5.9 8.9-2.5 2.5-5.5 4.5-8.8 5.9-3.3 1.3-6.8 2-10.4 2h-24.8l-39.8 41.4c-1.1 1.2-2.6 2-4.2 2.3-1.6 0.3-3.2 0.2-4.7-0.4-1.5-0.6-2.8-1.7-3.7-3-0.9-1.3-1.4-2.9-1.4-4.5v-35.7h-21.3c-3.6 0-7.2-0.7-10.5-2.1-3.3-1.4-6.3-3.4-8.8-5.9-2.5-2.5-4.5-5.5-5.9-8.8-1.4-3.3-2.1-6.9-2.1-10.4v-99.9c0-3.6 0.7-7.1 2.1-10.4 1.4-3.3 3.4-6.3 5.9-8.9 2.5-2.5 5.5-4.5 8.8-5.9 3.3-1.3 6.9-2 10.5-2h99.9m11 27.1c0-1.4-0.3-2.8-0.8-4.2-0.6-1.3-1.4-2.5-2.4-3.5-1.1-1.1-2.3-1.9-3.6-2.4-1.3-0.6-2.8-0.9-4.2-0.9h-99.9c-1.5 0-2.9 0.3-4.3 0.9-1.3 0.5-2.5 1.3-3.5 2.4-1.1 1-1.9 2.2-2.4 3.5-0.6 1.4-0.9 2.8-0.9 4.2v99.9c0 1.5 0.3 2.9 0.9 4.2 0.5 1.4 1.3 2.6 2.4 3.6 1 1 2.2 1.9 3.5 2.4 1.4 0.6 2.8 0.8 4.3 0.8h29.4q1.7 0.1 3.1 0.7 1.5 0.6 2.7 1.7 1.1 1.2 1.7 2.6 0.6 1.5 0.6 3.1v23.8l28.3-29.4q0.6-0.6 1.2-1 0.7-0.5 1.5-0.8 0.7-0.3 1.5-0.5 0.8-0.2 1.6-0.2h28.3c1.4 0 2.9-0.2 4.2-0.8 1.3-0.5 2.5-1.4 3.6-2.4 1-1 1.8-2.2 2.4-3.6 0.5-1.3 0.8-2.7 0.8-4.2z"/>
			<path class="s2" d="m407.1 140.7c1.7-1.3 2.7-3.3 2.9-5.5 0.2-2.1-0.5-4.2-1.8-5.9-1.4-1.6-3.4-2.7-5.5-2.9-2.2-0.2-4.3 0.5-5.9 1.9l-21 17.4c-0.9 0.8-1.7 1.7-2.2 2.8-0.5 1.1-0.7 2.2-0.7 3.4 0 1.2 0.2 2.4 0.7 3.4 0.5 1.1 1.3 2.1 2.2 2.8l21 17.5q1.2 1 2.7 1.5 1.6 0.4 3.2 0.3 1.6-0.2 3-0.9 1.4-0.8 2.5-2 1-1.2 1.5-2.8 0.4-1.5 0.3-3.1-0.1-1.6-0.9-3.1-0.7-1.4-2-2.4l-13.5-11.2zm52.3-12.5c-1.6-1.3-3.8-2-5.9-1.8-2.2 0.2-4.1 1.2-5.5 2.9-1.4 1.6-2.1 3.8-1.9 5.9 0.2 2.2 1.3 4.1 2.9 5.5l13.5 11.2-13.4 11.2c-1.7 1.3-2.7 3.3-2.9 5.5-0.2 2.1 0.5 4.2 1.8 5.9 1.4 1.6 3.4 2.7 5.5 2.9 2.2 0.2 4.3-0.5 5.9-1.9l21-17.4c0.9-0.7 1.6-1.7 2.1-2.8 0.5-1.1 0.8-2.2 0.8-3.4 0-1.2-0.3-2.4-0.8-3.4-0.5-1.1-1.2-2.1-2.1-2.8zm-21.2-6.8q-1.5-0.5-3.1-0.4-1.6 0.1-3.1 0.8-1.4 0.7-2.5 1.9-1 1.2-1.5 2.8l-15.3 45.5c-0.5 2-0.3 4.1 0.6 6 1 1.9 2.7 3.3 4.7 3.9 1.9 0.7 4.1 0.6 6-0.3 1.9-0.9 3.4-2.5 4.1-4.5l15.2-45.5q0.5-1.5 0.4-3.1-0.1-1.6-0.8-3.1-0.7-1.4-1.9-2.5-1.3-1-2.8-1.5z"/>
		</g>
	</g>
</svg>